<svg id="svg" version="1.1" xmlns="http://www.w3.org/2000/svg" xmlns:xlink="http://www.w3.org/1999/xlink" width="400" height="400" viewBox="0, 0, 400,400"><g id="svgg"><path id="path0" d="M32.000 200.800 L 32.000 361.600 200.000 361.600 L 368.000 361.600 368.000 200.800 L 368.000 40.000 200.000 40.000 L 32.000 40.000 32.000 200.800 M351.902 200.600 C 351.998 336.009,351.962 345.031,351.326 345.500 C 350.173 346.349,49.478 346.221,48.629 345.371 C 47.987 344.730,47.604 58.297,48.243 56.632 C 48.464 56.056,62.109 56.008,200.143 56.099 L 351.800 56.200 351.902 200.600 M68.400 131.957 C 68.400 137.731,67.441 137.200,77.859 137.200 C 82.742 137.200,86.365 137.367,86.826 137.614 C 87.785 138.127,88.076 266.164,87.120 267.120 C 86.777 267.463,84.252 267.600,78.294 267.600 C 67.715 267.600,68.400 267.225,68.400 273.014 L 68.400 277.600 99.012 277.600 L 129.625 277.600 129.512 272.700 L 129.400 267.800 118.800 267.702 C 111.638 267.636,107.908 267.452,107.300 267.135 L 106.400 266.665 106.400 239.981 C 106.400 215.658,106.458 213.249,107.061 212.749 C 107.593 212.307,111.466 212.161,126.961 212.000 C 137.542 211.890,146.385 211.679,146.610 211.532 C 146.836 211.385,148.802 211.065,150.981 210.822 C 153.159 210.579,155.147 210.210,155.398 210.002 C 155.649 209.793,156.832 209.414,158.027 209.160 C 159.222 208.905,160.555 208.450,160.989 208.148 C 161.423 207.847,162.115 207.600,162.526 207.600 C 162.937 207.600,163.731 207.240,164.291 206.800 C 164.850 206.360,165.616 206.000,165.992 206.000 C 166.368 206.000,167.002 205.640,167.400 205.200 C 167.798 204.760,168.339 204.400,168.601 204.400 C 168.863 204.400,169.466 204.085,169.940 203.700 C 170.414 203.315,171.372 202.550,172.068 202.000 C 175.614 199.199,180.800 193.567,180.800 192.517 C 180.800 192.301,181.160 191.798,181.600 191.400 C 182.040 191.002,182.400 190.476,182.400 190.232 C 182.400 189.988,182.760 189.116,183.200 188.296 C 183.640 187.475,184.000 186.575,184.000 186.296 C 184.000 186.016,184.360 185.116,184.800 184.296 C 185.240 183.475,185.600 182.385,185.600 181.874 C 185.600 181.364,185.956 179.608,186.391 177.973 C 187.502 173.792,187.502 165.408,186.391 161.227 C 185.956 159.592,185.600 157.830,185.600 157.311 C 185.600 156.792,185.240 155.662,184.800 154.800 C 184.360 153.938,183.999 153.000,183.998 152.716 C 183.995 151.680,180.496 145.642,178.402 143.057 C 176.377 140.558,170.470 135.501,168.400 134.493 C 167.850 134.225,167.040 133.796,166.600 133.540 C 164.995 132.605,164.581 132.386,163.600 131.952 C 163.050 131.708,161.860 131.169,160.956 130.754 C 160.052 130.340,158.882 129.999,158.356 129.998 C 157.830 129.996,156.881 129.724,156.246 129.393 C 155.611 129.062,153.386 128.601,151.301 128.369 C 149.216 128.136,147.069 127.778,146.529 127.573 C 145.947 127.352,129.862 127.200,106.974 127.200 L 68.400 127.200 68.400 131.957 M206.800 132.196 L 206.800 137.200 215.920 137.200 C 222.480 137.200,225.175 137.335,225.520 137.680 C 226.264 138.424,226.213 266.525,225.468 267.143 C 225.125 267.428,221.763 267.622,215.968 267.692 L 207.000 267.800 206.888 272.700 L 206.775 277.600 246.090 277.600 C 270.843 277.600,285.917 277.453,286.786 277.204 C 287.546 276.986,290.350 276.631,293.019 276.414 C 295.839 276.185,298.358 275.766,299.035 275.412 C 299.676 275.078,300.920 274.798,301.800 274.789 C 302.680 274.780,304.120 274.425,305.000 274.000 C 305.880 273.575,306.940 273.221,307.356 273.214 C 307.772 273.206,308.852 272.853,309.756 272.429 C 310.660 272.005,312.427 271.177,313.683 270.590 C 314.939 270.003,316.176 269.270,316.432 268.961 C 316.688 268.653,317.063 268.400,317.265 268.400 C 318.430 268.400,326.400 260.845,326.400 259.741 C 326.400 259.429,326.670 259.071,327.000 258.945 C 327.330 258.818,327.600 258.488,327.600 258.211 C 327.600 257.934,327.937 257.279,328.348 256.754 C 328.759 256.229,329.221 255.227,329.374 254.528 C 329.526 253.828,329.890 253.057,330.182 252.815 C 330.474 252.572,330.828 251.610,330.968 250.676 C 331.108 249.743,331.475 248.492,331.783 247.897 C 333.423 244.736,333.438 224.787,331.802 222.244 C 331.504 221.780,331.137 220.731,330.988 219.914 C 330.838 219.097,330.470 218.224,330.169 217.974 C 329.868 217.724,329.509 216.920,329.371 216.188 C 329.234 215.455,328.869 214.759,328.561 214.640 C 328.252 214.522,328.000 214.176,328.000 213.871 C 328.000 213.566,327.595 212.848,327.100 212.274 C 326.115 211.132,324.921 209.634,324.481 208.987 C 323.411 207.415,317.500 203.253,313.800 201.466 C 309.183 199.236,308.117 198.800,307.283 198.800 C 306.846 198.800,305.703 198.444,304.744 198.009 C 303.785 197.574,302.405 197.214,301.677 197.209 C 295.364 197.167,296.051 194.283,302.586 193.395 C 303.678 193.247,304.933 192.872,305.375 192.563 C 305.817 192.253,306.415 192.000,306.706 192.000 C 307.207 192.000,311.286 190.102,313.000 189.071 C 316.348 187.058,318.763 184.747,320.809 181.600 C 321.452 180.610,322.119 179.620,322.289 179.400 C 323.178 178.256,324.541 174.289,324.832 172.000 C 325.014 170.570,325.351 168.771,325.582 168.003 C 326.187 165.982,326.095 161.205,325.400 158.535 C 325.070 157.269,324.796 155.415,324.791 154.416 C 324.786 153.417,324.426 151.815,323.991 150.856 C 323.556 149.897,323.200 148.797,323.200 148.410 C 323.200 148.024,322.840 147.250,322.400 146.691 C 321.960 146.131,321.600 145.485,321.600 145.255 C 321.600 144.756,320.375 142.914,318.191 140.127 C 316.628 138.131,310.505 133.200,309.592 133.200 C 309.336 133.200,308.669 132.840,308.109 132.400 C 307.550 131.960,306.747 131.600,306.325 131.600 C 305.904 131.600,304.893 131.257,304.079 130.838 C 302.378 129.961,300.025 129.306,296.600 128.756 C 295.280 128.545,293.030 128.156,291.600 127.894 C 289.722 127.549,277.587 127.385,247.900 127.305 L 206.800 127.193 206.800 132.196 M144.800 138.158 C 146.010 138.575,147.740 139.250,148.644 139.658 C 149.548 140.066,150.394 140.400,150.524 140.400 C 150.954 140.400,154.172 142.697,156.018 144.323 C 157.940 146.015,160.913 150.054,161.411 151.650 C 161.574 152.173,161.954 152.955,162.254 153.389 C 162.554 153.823,162.801 154.543,162.802 154.989 C 162.804 155.435,163.099 156.340,163.458 157.000 C 165.217 160.229,165.205 178.886,163.443 182.200 C 163.092 182.860,162.804 183.716,162.802 184.101 C 162.801 184.487,162.440 185.475,162.000 186.296 C 161.560 187.116,161.200 188.021,161.200 188.307 C 161.200 188.592,160.937 188.926,160.615 189.050 C 160.294 189.173,159.922 189.615,159.790 190.031 C 159.253 191.724,155.054 196.005,152.732 197.229 C 152.219 197.499,151.710 197.843,151.600 197.993 C 151.216 198.519,146.842 200.400,146.005 200.400 C 145.540 200.400,144.584 200.715,143.880 201.100 C 141.922 202.170,108.316 202.410,107.157 201.361 C 106.022 200.334,105.966 138.298,107.100 137.623 C 108.500 136.790,142.219 137.269,144.800 138.158 M283.659 137.882 C 283.978 138.148,285.041 138.491,286.020 138.646 C 287.767 138.921,289.003 139.423,293.000 141.478 C 295.279 142.650,299.371 146.625,300.255 148.525 C 300.581 149.226,301.105 150.250,301.418 150.800 C 301.732 151.350,301.991 152.124,301.994 152.520 C 301.997 152.916,302.312 153.816,302.692 154.520 C 303.727 156.433,303.962 169.801,303.007 172.400 C 302.643 173.390,302.167 174.917,301.949 175.794 C 301.732 176.671,301.338 177.661,301.073 177.994 C 300.809 178.327,300.238 179.299,299.804 180.154 C 299.371 181.009,298.083 182.617,296.943 183.728 C 295.031 185.590,293.854 186.389,291.200 187.625 C 290.650 187.881,289.750 188.323,289.200 188.608 C 288.650 188.893,287.480 189.247,286.600 189.395 C 285.720 189.543,284.280 189.958,283.400 190.318 C 281.434 191.121,248.257 191.589,246.300 190.840 L 245.200 190.420 245.200 164.290 C 245.200 143.921,245.310 138.049,245.700 137.657 C 246.404 136.948,282.794 137.164,283.659 137.882 M289.000 202.069 C 290.100 202.437,292.335 203.157,293.966 203.669 C 295.598 204.181,297.160 204.825,297.438 205.100 C 297.716 205.375,298.104 205.600,298.302 205.600 C 298.982 205.600,303.338 209.234,304.553 210.815 C 305.223 211.687,305.913 212.400,306.086 212.400 C 306.259 212.400,306.400 212.646,306.400 212.946 C 306.400 213.246,306.749 213.936,307.175 214.478 C 307.602 215.020,308.080 215.989,308.238 216.632 C 308.397 217.274,308.748 218.160,309.018 218.600 C 309.289 219.040,309.630 220.120,309.777 221.000 C 309.924 221.880,310.316 223.334,310.649 224.230 C 311.399 226.247,311.314 243.887,310.550 244.839 C 310.303 245.148,309.974 246.300,309.819 247.400 C 309.664 248.500,309.310 249.760,309.032 250.200 C 308.754 250.640,308.403 251.500,308.253 252.111 C 307.997 253.149,306.029 256.218,304.200 258.432 C 303.162 259.688,299.681 262.498,298.400 263.114 C 297.850 263.378,297.130 263.769,296.800 263.983 C 295.589 264.769,292.420 266.000,291.609 266.000 C 291.150 266.000,290.105 266.313,289.287 266.695 C 287.404 267.576,246.788 268.020,245.765 267.171 C 244.978 266.518,244.911 202.449,245.697 201.663 C 246.544 200.816,286.368 201.189,289.000 202.069 " stroke="none" fill="#060606" fill-rule="evenodd"></path><path id="path1" d="M49.067 57.067 C 48.920 57.213,48.800 122.013,48.800 201.067 L 48.800 344.800 200.000 344.800 L 351.200 344.800 351.200 200.800 L 351.200 56.800 200.267 56.800 C 117.253 56.800,49.213 56.920,49.067 57.067 M151.200 126.871 C 151.970 127.240,153.590 127.662,154.800 127.809 C 156.010 127.956,157.399 128.329,157.886 128.638 C 158.373 128.947,159.163 129.200,159.642 129.200 C 160.121 129.200,161.252 129.540,162.156 129.954 C 163.060 130.369,164.250 130.913,164.800 131.162 C 165.350 131.412,166.520 132.054,167.400 132.589 C 168.280 133.124,169.270 133.693,169.600 133.854 C 172.709 135.366,181.600 143.989,181.600 145.494 C 181.600 145.704,181.960 146.202,182.400 146.600 C 182.840 146.998,183.200 147.632,183.200 148.008 C 183.200 148.384,183.560 149.150,184.000 149.709 C 184.440 150.269,184.800 151.008,184.800 151.353 C 184.800 151.698,185.159 152.570,185.599 153.290 C 186.038 154.011,186.398 155.104,186.399 155.720 C 186.399 156.336,186.715 157.416,187.100 158.120 C 187.715 159.244,187.800 160.640,187.800 169.600 C 187.800 178.560,187.715 179.956,187.100 181.080 C 186.715 181.784,186.400 182.829,186.400 183.401 C 186.400 183.973,186.056 185.107,185.635 185.921 C 185.214 186.734,184.367 188.480,183.752 189.800 C 183.137 191.120,182.534 192.290,182.412 192.400 C 182.289 192.510,181.472 193.657,180.595 194.950 C 178.332 198.284,174.645 201.850,170.824 204.400 C 170.330 204.730,169.367 205.405,168.685 205.900 C 168.003 206.395,167.232 206.800,166.971 206.800 C 166.711 206.800,166.283 207.058,166.021 207.374 C 165.759 207.690,164.975 208.074,164.278 208.227 C 163.582 208.380,162.649 208.734,162.206 209.013 C 161.763 209.293,160.773 209.653,160.006 209.813 C 159.239 209.974,158.249 210.334,157.806 210.615 C 157.363 210.895,155.830 211.251,154.400 211.407 C 152.970 211.562,151.548 211.894,151.239 212.145 C 150.842 212.467,144.455 212.659,129.439 212.800 L 108.200 213.000 108.200 239.800 L 108.200 266.600 119.281 266.800 C 127.620 266.951,130.490 267.129,130.881 267.520 C 131.777 268.418,131.860 277.286,130.978 278.018 C 129.903 278.910,67.756 278.893,67.192 278.000 C 66.698 277.219,66.698 268.382,67.191 267.600 C 67.503 267.105,69.170 266.965,76.685 266.800 L 85.800 266.600 85.800 202.400 L 85.800 138.200 76.800 138.000 C 65.866 137.757,66.799 138.291,66.806 132.276 C 66.813 127.117,66.929 126.618,68.200 126.280 C 70.590 125.644,149.818 126.208,151.200 126.871 M289.895 126.370 C 292.367 126.548,294.617 126.877,294.895 127.102 C 295.173 127.327,296.570 127.638,298.000 127.793 C 299.430 127.949,300.960 128.300,301.400 128.574 C 301.840 128.849,302.897 129.184,303.750 129.319 C 304.602 129.455,305.592 129.823,305.950 130.138 C 306.307 130.453,307.197 130.838,307.927 130.993 C 308.657 131.148,309.351 131.528,309.470 131.838 C 309.588 132.147,310.015 132.400,310.417 132.400 C 312.499 132.400,322.400 142.209,322.400 144.273 C 322.400 144.509,322.658 144.917,322.974 145.179 C 323.290 145.441,323.674 146.225,323.827 146.922 C 323.980 147.618,324.337 148.551,324.621 148.994 C 324.905 149.437,325.266 150.681,325.423 151.759 C 325.580 152.836,325.953 154.186,326.252 154.759 C 327.024 156.239,327.026 170.557,326.254 172.037 C 325.956 172.608,325.585 173.778,325.428 174.637 C 325.172 176.044,324.453 177.700,322.297 181.847 C 321.910 182.591,321.415 183.200,321.197 183.200 C 320.979 183.200,320.800 183.401,320.800 183.646 C 320.800 184.026,318.622 186.236,316.118 188.397 C 314.077 190.158,309.152 192.800,307.910 192.800 C 307.574 192.800,307.093 193.047,306.842 193.349 C 306.591 193.652,305.492 194.017,304.400 194.162 C 303.042 194.342,302.286 194.666,302.007 195.187 C 301.419 196.285,301.394 196.267,303.831 196.518 C 305.058 196.645,306.492 197.030,307.017 197.374 C 307.542 197.718,308.281 198.000,308.660 198.000 C 309.038 198.000,310.079 198.344,310.974 198.764 C 311.868 199.184,313.631 200.006,314.892 200.589 C 316.153 201.173,317.290 201.822,317.419 202.031 C 317.549 202.241,318.264 202.667,319.009 202.978 C 320.661 203.668,327.034 209.923,328.609 212.400 C 330.252 214.984,331.600 217.565,331.600 218.127 C 331.600 218.394,331.960 219.284,332.400 220.104 C 332.840 220.925,333.200 222.205,333.200 222.948 C 333.200 223.691,333.505 225.087,333.877 226.050 C 334.855 228.578,334.857 240.451,333.880 243.573 C 333.506 244.768,333.200 246.433,333.200 247.274 C 333.200 248.115,332.840 249.475,332.400 250.296 C 331.960 251.116,331.600 252.172,331.600 252.640 C 331.600 253.109,331.240 253.950,330.800 254.509 C 330.360 255.069,330.000 255.736,330.000 255.992 C 330.000 256.682,327.982 260.000,327.562 260.000 C 327.363 260.000,327.200 260.261,327.200 260.579 C 327.200 260.898,326.730 261.663,326.156 262.279 C 325.582 262.896,324.727 263.851,324.256 264.403 C 323.511 265.275,321.420 267.013,317.537 269.986 C 316.952 270.434,316.209 270.800,315.886 270.800 C 315.562 270.800,315.074 271.070,314.800 271.400 C 314.526 271.730,314.099 272.006,313.851 272.013 C 313.603 272.019,312.500 272.468,311.400 273.009 C 310.300 273.550,309.121 273.994,308.780 273.996 C 308.439 273.998,307.981 274.179,307.761 274.399 C 307.542 274.618,306.295 274.994,304.990 275.236 C 303.684 275.477,302.163 275.907,301.608 276.191 C 301.054 276.475,299.250 276.834,297.600 276.989 C 295.950 277.144,293.790 277.562,292.800 277.918 C 290.178 278.862,207.235 279.206,206.463 278.276 C 206.121 277.863,206.009 276.103,206.088 272.345 L 206.200 267.000 215.500 266.893 L 224.800 266.785 224.800 202.393 L 224.800 138.000 216.033 138.000 C 211.211 138.000,206.981 137.891,206.633 137.757 C 205.821 137.446,205.683 127.277,206.480 126.480 C 207.043 125.917,282.227 125.818,289.895 126.370 M108.184 138.500 C 108.079 138.775,108.040 152.950,108.097 170.000 L 108.200 201.000 122.570 201.105 C 133.936 201.188,137.407 201.092,139.170 200.643 C 140.397 200.331,142.480 199.947,143.800 199.790 C 145.120 199.633,146.470 199.270,146.800 198.983 C 147.130 198.697,147.934 198.329,148.587 198.166 C 149.239 198.003,150.128 197.539,150.562 197.135 C 150.996 196.731,151.589 196.400,151.880 196.400 C 152.566 196.400,158.493 190.503,159.116 189.200 C 159.379 188.650,159.763 187.930,159.969 187.600 C 160.957 186.017,162.100 183.017,162.294 181.493 C 162.413 180.562,162.755 179.314,163.055 178.720 C 163.838 177.168,163.829 162.254,163.044 160.349 C 162.739 159.607,162.363 158.064,162.210 156.920 C 162.056 155.776,161.676 154.629,161.365 154.371 C 161.054 154.113,160.800 153.599,160.800 153.229 C 160.800 152.858,160.350 151.945,159.800 151.200 C 159.250 150.455,158.800 149.692,158.800 149.505 C 158.800 148.588,153.151 143.117,151.424 142.362 C 150.971 142.164,150.330 141.834,150.000 141.629 C 148.434 140.657,145.609 139.628,143.800 139.370 C 142.700 139.214,141.102 138.842,140.250 138.543 C 138.082 137.784,108.473 137.744,108.184 138.500 M246.800 163.992 L 246.800 189.985 247.812 190.239 C 249.680 190.708,278.121 190.207,279.061 189.689 C 279.535 189.427,281.335 189.050,283.061 188.850 C 284.787 188.650,286.740 188.198,287.400 187.846 C 288.060 187.493,288.932 187.204,289.337 187.202 C 289.742 187.201,290.531 186.840,291.091 186.400 C 291.650 185.960,292.328 185.600,292.598 185.600 C 293.482 185.600,299.598 179.227,299.602 178.300 C 299.604 178.025,299.896 177.260,300.252 176.600 C 300.608 175.940,301.133 174.320,301.418 173.000 C 301.704 171.680,302.127 169.880,302.359 169.000 C 302.903 166.938,302.903 161.062,302.359 159.000 C 302.127 158.120,301.703 156.275,301.417 154.900 C 301.131 153.524,300.717 152.174,300.498 151.900 C 300.278 151.625,299.968 150.976,299.809 150.459 C 299.066 148.041,295.001 143.632,292.527 142.562 C 291.827 142.260,291.142 141.829,291.004 141.606 C 290.866 141.383,290.441 141.200,290.061 141.200 C 289.680 141.200,288.711 140.864,287.906 140.454 C 287.101 140.044,285.352 139.585,284.018 139.434 C 282.684 139.283,280.739 138.900,279.696 138.584 C 278.188 138.126,274.628 138.008,262.300 138.004 L 246.800 138.000 246.800 163.992 M247.067 202.267 C 246.920 202.413,246.800 216.993,246.800 234.667 L 246.800 266.800 264.936 266.800 C 279.606 266.800,283.440 266.689,284.995 266.221 C 286.053 265.903,287.885 265.522,289.067 265.374 C 290.248 265.227,291.880 264.767,292.692 264.353 C 293.505 263.939,294.469 263.600,294.836 263.600 C 295.202 263.600,295.726 263.330,296.000 263.000 C 296.274 262.670,296.823 262.400,297.220 262.400 C 297.618 262.400,298.181 262.175,298.471 261.900 C 298.762 261.625,299.810 260.788,300.800 260.040 C 302.656 258.638,305.392 255.447,305.858 254.141 C 306.003 253.734,306.337 253.130,306.600 252.800 C 307.329 251.886,308.433 248.479,308.868 245.800 C 309.083 244.480,309.515 242.368,309.829 241.106 C 310.478 238.498,310.604 230.189,310.018 228.646 C 309.807 228.093,309.425 226.061,309.168 224.131 C 308.911 222.200,308.471 220.256,308.190 219.810 C 307.909 219.365,307.559 218.427,307.414 217.728 C 307.268 217.028,306.890 216.241,306.574 215.979 C 306.258 215.717,306.000 215.270,306.000 214.987 C 306.000 214.082,301.618 208.872,300.340 208.256 C 300.043 208.114,298.900 207.458,297.800 206.800 C 296.700 206.142,295.530 205.501,295.200 205.377 C 294.870 205.252,293.697 204.801,292.592 204.375 C 291.488 203.949,290.048 203.598,289.392 203.595 C 288.737 203.593,286.760 203.235,285.000 202.800 C 281.763 202.000,247.810 201.523,247.067 202.267 " stroke="none" fill="#fbfbfb" fill-rule="evenodd"></path><path id="path2" d="M87.530 126.700 C 97.942 126.759,114.862 126.759,125.130 126.700 C 135.399 126.640,126.880 126.592,106.200 126.592 C 85.520 126.592,77.119 126.641,87.530 126.700 M206.662 126.700 C 206.494 126.972,234.744 126.969,272.000 126.694 C 279.810 126.637,268.346 126.547,246.524 126.495 C 224.702 126.443,206.764 126.535,206.662 126.700 M67.372 127.328 C 67.261 127.619,67.223 129.644,67.288 131.828 L 67.406 135.800 67.603 131.299 C 67.798 126.845,67.766 126.301,67.372 127.328 M107.390 169.600 C 107.390 186.870,107.440 193.935,107.500 185.300 C 107.560 176.665,107.560 162.535,107.500 153.900 C 107.440 145.265,107.390 152.330,107.390 169.600 M176.800 140.600 C 177.546 141.370,178.247 142.000,178.357 142.000 C 178.467 142.000,177.946 141.370,177.200 140.600 C 176.454 139.830,175.753 139.200,175.643 139.200 C 175.533 139.200,176.054 139.830,176.800 140.600 M164.093 165.200 C 164.093 165.970,164.175 166.285,164.276 165.900 C 164.376 165.515,164.376 164.885,164.276 164.500 C 164.175 164.115,164.093 164.430,164.093 165.200 M273.700 190.687 C 274.305 190.778,275.295 190.778,275.900 190.687 C 276.505 190.595,276.010 190.520,274.800 190.520 C 273.590 190.520,273.095 190.595,273.700 190.687 M299.790 195.230 C 299.412 196.422,299.727 196.515,300.267 195.371 C 300.519 194.837,300.574 194.400,300.389 194.400 C 300.205 194.400,299.935 194.774,299.790 195.230 M107.384 213.300 C 107.279 213.575,107.239 225.680,107.296 240.200 L 107.400 266.600 107.600 239.700 C 107.710 224.905,107.749 212.800,107.687 212.800 C 107.626 212.800,107.489 213.025,107.384 213.300 M130.551 273.200 C 130.551 275.730,130.616 276.765,130.696 275.500 C 130.775 274.235,130.775 272.165,130.696 270.900 C 130.616 269.635,130.551 270.670,130.551 273.200 M67.267 273.476 C 67.230 275.718,67.335 277.637,67.500 277.740 C 67.665 277.842,67.751 276.638,67.691 275.063 C 67.494 269.918,67.336 269.324,67.267 273.476 M206.742 278.102 C 206.908 278.268,224.134 278.358,245.022 278.302 L 283.000 278.200 244.720 278.000 C 223.666 277.890,206.576 277.936,206.742 278.102 M83.670 278.300 C 91.959 278.360,105.639 278.360,114.070 278.300 C 122.502 278.240,115.720 278.190,99.000 278.190 C 82.280 278.190,75.382 278.239,83.670 278.300 M124.500 345.500 C 166.025 345.556,233.975 345.556,275.500 345.500 C 317.025 345.444,283.050 345.398,200.000 345.398 C 116.950 345.398,82.975 345.444,124.500 345.500 " stroke="none" fill="#848484" fill-rule="evenodd"></path><path id="path3" d="M48.243 56.632 C 47.604 58.297,47.987 344.730,48.629 345.371 C 49.478 346.221,350.173 346.349,351.326 345.500 C 351.962 345.031,351.998 336.009,351.902 200.600 L 351.800 56.200 200.143 56.099 C 62.109 56.008,48.464 56.056,48.243 56.632 M351.501 200.558 C 351.575 306.649,351.483 344.659,351.152 345.058 C 350.525 345.813,49.635 345.875,48.880 345.120 C 48.355 344.595,48.143 57.190,48.667 56.666 C 48.814 56.519,116.989 56.444,200.167 56.499 L 351.400 56.600 351.501 200.558 M67.867 127.067 C 67.625 127.309,67.465 137.100,67.700 137.274 C 67.755 137.315,72.030 137.450,77.200 137.574 L 86.600 137.800 86.701 202.176 C 86.782 253.412,86.700 266.616,86.301 266.870 C 86.026 267.045,82.167 267.191,77.726 267.194 C 73.285 267.197,69.185 267.378,68.614 267.595 L 67.575 267.990 67.688 272.895 L 67.800 277.800 99.000 277.800 L 130.200 277.800 130.314 273.005 C 130.463 266.700,131.471 267.200,118.604 267.200 C 111.014 267.200,108.029 267.069,107.680 266.720 C 106.731 265.771,107.017 213.326,107.974 212.814 C 108.473 212.547,115.314 212.392,127.274 212.376 C 137.463 212.363,146.610 212.198,147.600 212.010 C 148.590 211.822,150.660 211.459,152.200 211.205 C 160.207 209.881,168.181 206.145,174.407 200.799 C 181.151 195.009,185.245 187.358,187.247 176.800 C 187.880 173.463,187.476 161.424,186.658 159.250 C 186.296 158.287,185.994 157.117,185.986 156.650 C 185.979 156.182,185.625 155.080,185.200 154.200 C 184.775 153.320,184.421 152.440,184.414 152.244 C 184.323 149.862,177.058 139.991,173.541 137.472 C 173.024 137.101,171.610 136.083,170.400 135.209 C 168.354 133.732,167.173 133.091,162.358 130.844 C 160.114 129.797,157.121 128.918,153.400 128.214 C 151.860 127.922,149.630 127.485,148.445 127.242 C 146.072 126.755,68.347 126.586,67.867 127.067 M206.574 127.323 C 206.464 127.611,206.424 129.996,206.487 132.623 L 206.600 137.400 215.800 137.600 L 225.000 137.800 225.000 202.400 L 225.000 267.000 215.800 267.219 C 210.740 267.339,206.550 267.474,206.488 267.519 C 206.426 267.564,206.426 269.895,206.488 272.700 L 206.600 277.800 246.400 277.913 C 287.972 278.030,285.985 278.089,296.800 276.411 C 298.230 276.189,300.300 275.748,301.400 275.431 L 303.400 274.854 301.800 274.829 C 300.920 274.816,299.676 275.078,299.035 275.412 C 298.358 275.766,295.839 276.185,293.019 276.414 C 290.350 276.631,287.546 276.986,286.786 277.204 C 285.917 277.453,270.843 277.600,246.090 277.600 L 206.775 277.600 206.888 272.700 L 207.000 267.800 215.968 267.692 C 221.763 267.622,225.125 267.428,225.468 267.143 C 226.213 266.525,226.264 138.424,225.520 137.680 C 225.175 137.335,222.480 137.200,215.920 137.200 L 206.800 137.200 206.800 132.196 L 206.800 127.193 247.900 127.305 C 277.587 127.385,289.722 127.549,291.600 127.894 C 293.030 128.156,295.280 128.545,296.600 128.756 C 300.025 129.306,302.378 129.961,304.079 130.838 C 304.893 131.257,305.904 131.600,306.325 131.600 C 306.747 131.600,307.550 131.960,308.109 132.400 C 308.669 132.840,309.336 133.200,309.592 133.200 C 310.505 133.200,316.628 138.131,318.191 140.127 C 320.375 142.914,321.600 144.756,321.600 145.255 C 321.600 145.485,321.960 146.131,322.400 146.691 C 322.840 147.250,323.200 148.024,323.200 148.410 C 323.200 148.797,323.556 149.897,323.991 150.856 C 324.689 152.394,324.783 152.473,324.791 151.524 C 324.796 150.932,324.625 150.339,324.411 150.207 C 324.197 150.074,323.819 149.209,323.572 148.283 C 323.324 147.357,322.962 146.405,322.766 146.166 C 322.571 145.927,321.914 144.805,321.305 143.673 C 319.263 139.871,311.826 132.800,309.869 132.800 C 309.646 132.800,309.179 132.567,308.831 132.281 C 307.480 131.171,300.182 128.699,296.800 128.206 C 295.810 128.061,293.703 127.686,292.117 127.372 C 288.017 126.559,206.885 126.513,206.574 127.323 M146.529 127.573 C 147.069 127.778,149.216 128.136,151.301 128.369 C 153.386 128.601,155.611 129.062,156.246 129.393 C 156.881 129.724,157.830 129.996,158.356 129.998 C 158.882 129.999,160.052 130.340,160.956 130.754 C 161.860 131.169,163.050 131.708,163.600 131.952 C 164.581 132.386,164.995 132.605,166.600 133.540 C 167.040 133.796,167.850 134.225,168.400 134.493 C 170.470 135.501,176.377 140.558,178.402 143.057 C 180.496 145.642,183.995 151.680,183.998 152.716 C 183.999 153.000,184.360 153.938,184.800 154.800 C 185.240 155.662,185.600 156.792,185.600 157.311 C 185.600 157.830,185.956 159.592,186.391 161.227 C 187.502 165.408,187.502 173.792,186.391 177.973 C 185.956 179.608,185.600 181.364,185.600 181.874 C 185.600 182.385,185.240 183.475,184.800 184.296 C 184.360 185.116,184.000 186.016,184.000 186.296 C 184.000 186.575,183.640 187.475,183.200 188.296 C 182.760 189.116,182.400 189.988,182.400 190.232 C 182.400 190.476,182.040 191.002,181.600 191.400 C 181.160 191.798,180.800 192.301,180.800 192.517 C 180.800 193.567,175.614 199.199,172.068 202.000 C 171.372 202.550,170.414 203.315,169.940 203.700 C 169.466 204.085,168.863 204.400,168.601 204.400 C 168.339 204.400,167.798 204.760,167.400 205.200 C 167.002 205.640,166.368 206.000,165.992 206.000 C 165.616 206.000,164.850 206.360,164.291 206.800 C 163.731 207.240,162.937 207.600,162.526 207.600 C 162.115 207.600,161.423 207.847,160.989 208.148 C 160.555 208.450,159.222 208.905,158.027 209.160 C 156.832 209.414,155.649 209.793,155.398 210.002 C 155.147 210.210,153.159 210.579,150.981 210.822 C 148.802 211.065,146.836 211.385,146.610 211.532 C 146.385 211.679,137.542 211.890,126.961 212.000 C 111.466 212.161,107.593 212.307,107.061 212.749 C 106.458 213.249,106.400 215.658,106.400 239.981 L 106.400 266.665 107.300 267.135 C 107.908 267.452,111.638 267.636,118.800 267.702 L 129.400 267.800 129.512 272.700 L 129.625 277.600 99.012 277.600 L 68.400 277.600 68.400 273.014 C 68.400 267.225,67.715 267.600,78.294 267.600 C 84.252 267.600,86.777 267.463,87.120 267.120 C 88.076 266.164,87.785 138.127,86.826 137.614 C 86.365 137.367,82.742 137.200,77.859 137.200 C 67.441 137.200,68.400 137.731,68.400 131.957 L 68.400 127.200 106.974 127.200 C 129.862 127.200,145.947 127.352,146.529 127.573 M107.100 137.623 C 105.966 138.298,106.022 200.334,107.157 201.361 C 108.316 202.410,141.922 202.170,143.880 201.100 C 144.584 200.715,145.540 200.400,146.005 200.400 C 146.842 200.400,151.216 198.519,151.600 197.993 C 151.710 197.843,152.219 197.499,152.732 197.229 C 155.054 196.005,159.253 191.724,159.790 190.031 C 159.922 189.615,160.294 189.173,160.615 189.050 C 160.937 188.926,161.200 188.592,161.200 188.307 C 161.200 188.021,161.560 187.116,162.000 186.296 C 162.440 185.475,162.801 184.487,162.802 184.101 C 162.804 183.716,163.092 182.860,163.443 182.200 C 165.205 178.886,165.217 160.229,163.458 157.000 C 163.099 156.340,162.804 155.435,162.802 154.989 C 162.801 154.543,162.554 153.823,162.254 153.389 C 161.954 152.955,161.574 152.173,161.411 151.650 C 160.913 150.054,157.940 146.015,156.018 144.323 C 154.172 142.697,150.954 140.400,150.524 140.400 C 150.394 140.400,149.548 140.066,148.644 139.658 C 143.579 137.372,143.927 137.407,125.200 137.303 C 113.683 137.239,107.563 137.347,107.100 137.623 M245.700 137.657 C 245.310 138.049,245.200 143.921,245.200 164.290 L 245.200 190.420 246.300 190.840 C 248.257 191.589,281.434 191.121,283.400 190.318 C 284.280 189.958,285.720 189.543,286.600 189.395 C 287.480 189.247,288.650 188.893,289.200 188.608 C 289.750 188.323,290.650 187.881,291.200 187.625 C 293.854 186.389,295.031 185.590,296.943 183.728 C 298.083 182.617,299.371 181.009,299.804 180.154 C 300.238 179.299,300.809 178.327,301.073 177.994 C 301.338 177.661,301.732 176.671,301.949 175.794 C 302.167 174.917,302.643 173.390,303.007 172.400 C 303.962 169.801,303.727 156.433,302.692 154.520 C 302.312 153.816,301.997 152.916,301.994 152.520 C 301.991 152.124,301.732 151.350,301.418 150.800 C 301.105 150.250,300.581 149.226,300.255 148.525 C 299.371 146.625,295.279 142.650,293.000 141.478 C 289.003 139.423,287.767 138.921,286.020 138.646 C 285.041 138.491,283.978 138.148,283.659 137.882 C 282.794 137.164,246.404 136.948,245.700 137.657 M143.751 138.577 C 150.383 140.300,155.739 143.850,159.102 148.751 C 160.036 150.112,160.800 151.335,160.800 151.469 C 160.800 151.603,161.149 152.452,161.576 153.356 C 164.443 159.435,165.404 174.760,163.290 180.702 C 162.801 182.077,162.400 183.454,162.400 183.761 C 162.400 184.753,160.116 188.954,158.335 191.238 C 154.361 196.333,149.831 199.065,142.558 200.754 C 138.188 201.769,108.639 202.079,107.680 201.120 C 106.985 200.425,106.985 138.775,107.680 138.080 C 108.741 137.019,139.378 137.441,143.751 138.577 M282.600 138.400 C 284.360 138.835,286.116 139.193,286.501 139.195 C 286.887 139.198,287.875 139.560,288.696 140.000 C 289.516 140.440,290.403 140.800,290.666 140.800 C 291.578 140.800,295.900 143.964,297.552 145.840 C 301.405 150.218,303.000 155.534,303.000 164.000 C 303.000 179.207,297.388 186.384,282.800 189.833 C 279.676 190.572,250.548 191.217,247.356 190.618 L 246.000 190.364 246.000 164.249 C 246.000 149.885,246.120 138.013,246.267 137.867 C 247.008 137.125,279.363 137.600,282.600 138.400 M324.831 154.416 C 324.814 155.415,325.070 157.269,325.400 158.535 C 326.161 161.458,326.161 165.964,325.400 168.800 C 325.075 170.010,324.824 171.720,324.841 172.600 C 324.916 176.416,326.375 167.819,326.368 163.600 C 326.361 159.206,324.897 150.462,324.831 154.416 M323.678 176.308 C 323.195 177.430,322.800 178.458,322.800 178.591 C 322.800 178.725,322.615 179.051,322.389 179.317 C 322.164 179.583,321.452 180.610,320.809 181.600 C 318.763 184.747,316.348 187.058,313.000 189.071 C 311.286 190.102,307.207 192.000,306.706 192.000 C 306.415 192.000,305.817 192.253,305.375 192.563 C 304.933 192.872,303.678 193.247,302.586 193.395 C 297.724 194.055,295.454 195.966,298.592 196.756 C 299.561 197.000,300.950 197.204,301.677 197.209 C 302.405 197.214,303.785 197.574,304.744 198.009 C 305.703 198.444,306.846 198.800,307.283 198.800 C 308.117 198.800,309.183 199.236,313.800 201.466 C 317.500 203.253,323.411 207.415,324.481 208.987 C 324.921 209.634,326.115 211.132,327.100 212.274 C 327.595 212.848,328.000 213.566,328.000 213.871 C 328.000 214.176,328.252 214.522,328.561 214.640 C 328.869 214.759,329.234 215.455,329.371 216.188 C 329.509 216.920,329.868 217.724,330.169 217.974 C 330.470 218.224,330.838 219.097,330.988 219.914 C 331.137 220.731,331.504 221.780,331.802 222.244 C 333.438 224.787,333.423 244.736,331.783 247.897 C 331.475 248.492,331.108 249.743,330.968 250.676 C 330.828 251.610,330.474 252.572,330.182 252.815 C 329.890 253.057,329.526 253.828,329.374 254.528 C 329.221 255.227,328.759 256.229,328.348 256.754 C 327.937 257.279,327.600 257.934,327.600 258.211 C 327.600 258.488,327.330 258.818,327.000 258.945 C 326.670 259.071,326.400 259.429,326.400 259.741 C 326.400 260.845,318.430 268.400,317.265 268.400 C 317.063 268.400,316.688 268.653,316.432 268.961 C 316.176 269.270,314.939 270.003,313.683 270.590 C 312.427 271.177,310.660 272.005,309.756 272.429 C 308.852 272.853,307.772 273.206,307.356 273.214 C 306.940 273.221,305.880 273.590,305.000 274.032 C 303.512 274.781,303.484 274.825,304.600 274.657 C 306.427 274.381,309.591 273.154,314.383 270.861 C 338.331 259.404,341.079 218.430,318.888 203.690 C 315.810 201.646,309.029 198.400,307.836 198.400 C 307.464 198.400,306.653 198.138,306.034 197.817 C 305.414 197.497,303.779 197.053,302.400 196.831 C 299.504 196.365,299.442 196.327,299.783 195.255 C 299.973 194.654,300.620 194.332,302.319 193.993 C 309.157 192.625,316.388 188.331,320.269 183.333 C 322.153 180.906,324.962 175.487,324.717 174.751 C 324.628 174.485,324.161 175.185,323.678 176.308 M245.697 201.663 C 244.911 202.449,244.978 266.518,245.765 267.171 C 246.788 268.020,287.404 267.576,289.287 266.695 C 290.105 266.313,291.150 266.000,291.609 266.000 C 292.420 266.000,295.589 264.769,296.800 263.983 C 297.130 263.769,297.850 263.378,298.400 263.114 C 299.681 262.498,303.162 259.688,304.200 258.432 C 306.029 256.218,307.997 253.149,308.253 252.111 C 308.403 251.500,308.754 250.640,309.032 250.200 C 309.310 249.760,309.664 248.500,309.819 247.400 C 309.974 246.300,310.303 245.148,310.550 244.839 C 311.314 243.887,311.399 226.247,310.649 224.230 C 310.316 223.334,309.924 221.880,309.777 221.000 C 309.630 220.120,309.289 219.040,309.018 218.600 C 308.748 218.160,308.397 217.274,308.238 216.632 C 308.080 215.989,307.602 215.020,307.175 214.478 C 306.749 213.936,306.400 213.246,306.400 212.946 C 306.400 212.646,306.259 212.400,306.086 212.400 C 305.913 212.400,305.223 211.687,304.553 210.815 C 303.338 209.234,298.982 205.600,298.302 205.600 C 298.104 205.600,297.716 205.375,297.438 205.100 C 297.160 204.825,295.598 204.181,293.966 203.669 C 292.335 203.157,290.100 202.437,289.000 202.069 C 286.368 201.189,246.544 200.816,245.697 201.663 M288.400 202.530 C 293.184 203.869,296.195 204.915,296.831 205.460 C 297.179 205.757,297.642 206.000,297.862 206.000 C 299.396 206.000,305.216 211.951,307.056 215.400 C 312.351 225.329,311.966 245.756,306.318 254.600 C 304.126 258.031,299.745 262.400,298.497 262.400 C 298.283 262.400,297.679 262.721,297.154 263.112 C 292.698 266.440,288.183 267.000,265.800 267.000 L 246.200 267.000 246.097 234.800 C 246.040 217.090,246.082 202.367,246.191 202.082 C 246.539 201.171,285.003 201.579,288.400 202.530 " stroke="none" fill="#747474" fill-rule="evenodd"></path><path id="path4" d="M48.599 57.299 C 48.479 57.795,48.431 122.730,48.491 201.600 L 48.600 345.000 200.000 345.000 L 351.400 345.000 351.400 200.800 L 351.400 56.600 200.108 56.499 L 48.816 56.399 48.599 57.299 M351.200 200.800 L 351.200 344.800 200.000 344.800 L 48.800 344.800 48.800 201.067 C 48.800 122.013,48.920 57.213,49.067 57.067 C 49.213 56.920,117.253 56.800,200.267 56.800 L 351.200 56.800 351.200 200.800 M68.200 126.280 C 66.929 126.618,66.813 127.117,66.806 132.276 C 66.799 138.291,65.866 137.757,76.800 138.000 L 85.800 138.200 85.800 202.400 L 85.800 266.600 76.685 266.800 C 69.170 266.965,67.503 267.105,67.191 267.600 C 66.698 268.382,66.698 277.219,67.192 278.000 C 67.756 278.893,129.903 278.910,130.978 278.018 C 131.860 277.286,131.777 268.418,130.881 267.520 C 130.490 267.129,127.620 266.951,119.281 266.800 L 108.200 266.600 108.200 239.800 L 108.200 213.000 129.439 212.800 C 144.455 212.659,150.842 212.467,151.239 212.145 C 151.548 211.894,152.970 211.562,154.400 211.407 C 155.830 211.251,157.363 210.895,157.806 210.615 C 158.249 210.334,159.239 209.974,160.006 209.813 C 160.773 209.653,161.763 209.293,162.206 209.013 C 162.649 208.734,163.582 208.380,164.278 208.227 C 164.975 208.074,165.759 207.690,166.021 207.374 C 166.283 207.058,166.711 206.800,166.971 206.800 C 167.232 206.800,168.003 206.395,168.685 205.900 C 169.367 205.405,170.330 204.730,170.824 204.400 C 174.645 201.850,178.332 198.284,180.595 194.950 C 181.472 193.657,182.289 192.510,182.412 192.400 C 182.534 192.290,183.137 191.120,183.752 189.800 C 184.367 188.480,185.214 186.734,185.635 185.921 C 186.056 185.107,186.400 183.973,186.400 183.401 C 186.400 182.829,186.715 181.784,187.100 181.080 C 187.715 179.956,187.800 178.560,187.800 169.600 C 187.800 160.640,187.715 159.244,187.100 158.120 C 186.715 157.416,186.399 156.336,186.399 155.720 C 186.398 155.104,186.038 154.011,185.599 153.290 C 185.159 152.570,184.800 151.698,184.800 151.353 C 184.800 151.008,184.440 150.269,184.000 149.709 C 183.560 149.150,183.200 148.384,183.200 148.008 C 183.200 147.632,182.840 146.998,182.400 146.600 C 181.960 146.202,181.600 145.704,181.600 145.494 C 181.600 143.989,172.709 135.366,169.600 133.854 C 169.270 133.693,168.280 133.124,167.400 132.589 C 166.520 132.054,165.350 131.412,164.800 131.162 C 164.250 130.913,163.060 130.369,162.156 129.954 C 161.252 129.540,160.082 129.216,159.556 129.236 C 158.779 129.265,158.853 129.345,159.952 129.661 C 160.696 129.875,161.686 130.290,162.152 130.583 C 162.618 130.877,163.429 131.245,163.954 131.402 C 169.934 133.193,181.819 144.151,183.034 148.994 C 183.169 149.529,183.531 150.177,183.839 150.433 C 184.148 150.689,184.400 151.171,184.400 151.505 C 184.400 151.839,184.739 152.852,185.153 153.756 C 187.338 158.524,188.526 172.962,187.165 178.200 C 186.937 179.080,186.565 180.610,186.341 181.600 C 185.458 185.484,184.005 188.659,180.941 193.400 C 176.576 200.154,169.963 205.369,161.400 208.807 C 159.374 209.620,153.699 211.204,152.800 211.207 C 152.250 211.208,150.810 211.475,149.600 211.800 C 147.804 212.282,143.832 212.391,127.980 212.395 C 113.414 212.399,108.440 212.520,108.080 212.880 C 107.251 213.709,107.401 266.638,108.233 266.957 C 108.581 267.091,113.486 267.203,119.133 267.206 C 131.548 267.214,130.566 266.748,130.732 272.706 L 130.863 277.443 129.813 277.921 C 128.438 278.548,69.816 278.614,68.177 277.991 L 67.102 277.583 67.274 272.763 C 67.487 266.779,66.741 267.215,76.800 267.201 C 81.310 267.194,85.405 267.081,85.900 266.948 L 86.800 266.707 86.800 202.396 C 86.800 144.122,86.741 138.063,86.167 137.843 C 85.819 137.709,81.600 137.600,76.791 137.600 C 66.539 137.600,67.457 138.148,67.262 131.906 L 67.116 127.212 68.240 126.785 C 69.913 126.149,147.286 126.472,149.238 127.124 C 150.028 127.387,152.008 127.854,153.638 128.161 C 155.267 128.467,157.050 128.840,157.600 128.989 C 158.526 129.239,158.547 129.216,157.884 128.674 C 157.490 128.352,156.140 127.968,154.884 127.821 C 153.628 127.674,151.970 127.249,151.200 126.877 C 149.819 126.209,70.607 125.639,68.200 126.280 M206.480 126.480 C 205.683 127.277,205.821 137.446,206.633 137.757 C 206.981 137.891,211.211 138.000,216.033 138.000 L 224.800 138.000 224.800 202.393 L 224.800 266.785 215.500 266.893 L 206.200 267.000 206.088 272.345 C 206.009 276.103,206.121 277.863,206.463 278.276 C 207.235 279.206,290.178 278.862,292.800 277.918 C 293.790 277.562,295.950 277.144,297.600 276.989 C 299.250 276.834,301.054 276.475,301.608 276.191 C 302.163 275.907,303.684 275.477,304.990 275.236 C 306.295 274.994,307.542 274.618,307.761 274.399 C 307.981 274.179,308.439 273.998,308.780 273.996 C 309.121 273.994,310.300 273.550,311.400 273.009 C 312.500 272.468,313.603 272.019,313.851 272.013 C 314.099 272.006,314.526 271.730,314.800 271.400 C 315.074 271.070,315.562 270.800,315.886 270.800 C 316.209 270.800,316.952 270.434,317.537 269.986 C 321.420 267.013,323.511 265.275,324.256 264.403 C 324.727 263.851,325.582 262.896,326.156 262.279 C 326.730 261.663,327.200 260.898,327.200 260.579 C 327.200 260.261,327.363 260.000,327.562 260.000 C 327.982 260.000,330.000 256.682,330.000 255.992 C 330.000 255.736,330.360 255.069,330.800 254.509 C 331.240 253.950,331.600 253.109,331.600 252.640 C 331.600 252.172,331.960 251.116,332.400 250.296 C 332.884 249.392,333.178 248.131,333.146 247.101 C 333.112 246.046,333.026 245.779,332.919 246.400 C 330.589 259.946,318.685 271.638,303.794 275.004 C 302.471 275.303,300.929 275.723,300.368 275.936 C 299.807 276.149,298.280 276.444,296.974 276.591 C 295.668 276.737,292.980 277.160,291.000 277.529 C 287.781 278.129,283.121 278.200,247.000 278.200 L 206.600 278.200 206.600 272.800 L 206.600 267.400 215.800 267.200 L 225.000 267.000 225.000 202.400 L 225.000 137.800 215.800 137.600 L 206.600 137.400 206.600 132.000 L 206.600 126.600 248.200 126.600 C 285.609 126.600,290.102 126.667,292.800 127.269 C 294.450 127.636,296.790 128.119,298.000 128.341 C 304.774 129.584,312.356 133.322,316.600 137.511 C 319.000 139.879,320.473 141.695,321.382 143.404 C 321.941 144.456,322.557 145.515,322.750 145.758 C 322.944 146.001,323.234 146.650,323.396 147.200 C 323.557 147.750,323.924 148.740,324.211 149.400 C 325.991 153.489,327.102 166.644,325.985 170.403 C 325.756 171.171,325.396 172.700,325.184 173.800 C 324.840 175.584,324.149 177.414,323.146 179.200 C 322.960 179.530,322.433 180.495,321.973 181.345 C 320.900 183.330,316.145 188.089,314.145 189.181 C 313.295 189.645,311.880 190.424,311.000 190.912 C 308.696 192.191,305.307 193.504,303.016 194.006 C 299.464 194.785,298.868 196.184,301.900 196.631 C 304.013 196.942,309.043 198.475,311.200 199.465 C 314.932 201.179,316.334 201.923,318.620 203.400 C 323.082 206.283,327.024 210.441,329.164 214.524 C 329.835 215.803,330.518 217.063,330.682 217.324 C 331.137 218.046,332.414 221.621,332.782 223.200 L 333.108 224.600 333.154 223.099 C 333.179 222.273,332.840 220.925,332.400 220.104 C 331.960 219.284,331.600 218.394,331.600 218.127 C 331.600 217.565,330.252 214.984,328.609 212.400 C 327.034 209.923,320.661 203.668,319.009 202.978 C 318.264 202.667,317.549 202.241,317.419 202.031 C 317.290 201.822,316.153 201.173,314.892 200.589 C 313.631 200.006,311.868 199.184,310.974 198.764 C 310.079 198.344,309.038 198.000,308.660 198.000 C 308.281 198.000,307.542 197.718,307.017 197.374 C 306.492 197.030,305.058 196.645,303.831 196.518 C 301.394 196.267,301.419 196.285,302.007 195.187 C 302.286 194.666,303.042 194.342,304.400 194.162 C 305.492 194.017,306.591 193.652,306.842 193.349 C 307.093 193.047,307.574 192.800,307.910 192.800 C 309.152 192.800,314.077 190.158,316.118 188.397 C 318.622 186.236,320.800 184.026,320.800 183.646 C 320.800 183.401,320.979 183.200,321.197 183.200 C 321.415 183.200,321.910 182.591,322.297 181.847 C 324.453 177.700,325.172 176.044,325.428 174.637 C 325.585 173.778,325.956 172.608,326.254 172.037 C 327.026 170.557,327.024 156.239,326.252 154.759 C 325.953 154.186,325.580 152.836,325.423 151.759 C 325.266 150.681,324.905 149.437,324.621 148.994 C 324.337 148.551,323.980 147.618,323.827 146.922 C 323.674 146.225,323.290 145.441,322.974 145.179 C 322.658 144.917,322.400 144.509,322.400 144.273 C 322.400 142.209,312.499 132.400,310.417 132.400 C 310.015 132.400,309.588 132.147,309.470 131.838 C 309.351 131.528,308.657 131.148,307.927 130.993 C 307.197 130.838,306.307 130.453,305.950 130.138 C 305.592 129.823,304.602 129.455,303.750 129.319 C 302.897 129.184,301.840 128.849,301.400 128.574 C 300.960 128.300,299.430 127.949,298.000 127.793 C 296.570 127.638,295.173 127.327,294.895 127.102 C 293.504 125.977,207.587 125.373,206.480 126.480 M107.867 137.867 C 107.720 138.013,107.600 152.320,107.600 169.659 L 107.600 201.185 108.571 201.428 C 110.958 202.028,140.546 201.365,142.350 200.672 C 143.313 200.303,144.532 200.000,145.059 200.000 C 150.317 200.000,162.400 188.471,162.400 183.454 C 162.400 183.152,162.781 181.756,163.247 180.352 C 163.999 178.086,164.094 176.881,164.094 169.600 C 164.094 162.319,163.999 161.114,163.247 158.848 C 162.781 157.444,162.400 156.071,162.400 155.796 C 162.400 154.849,160.258 150.595,158.743 148.533 C 154.507 142.769,149.741 140.000,140.600 137.987 C 138.748 137.579,108.266 137.467,107.867 137.867 M246.500 137.865 C 246.107 138.023,246.000 143.636,246.000 164.043 L 246.000 190.020 247.026 190.410 C 247.632 190.640,253.154 190.764,260.526 190.711 L 273.000 190.622 260.000 190.397 C 252.850 190.273,246.955 190.133,246.900 190.086 C 246.845 190.039,246.800 178.300,246.800 164.000 L 246.800 138.000 262.300 138.004 C 274.628 138.008,278.188 138.126,279.696 138.584 C 280.739 138.900,282.684 139.283,284.018 139.434 C 285.352 139.585,287.101 140.044,287.906 140.454 C 288.711 140.864,289.680 141.200,290.061 141.200 C 290.441 141.200,290.866 141.383,291.004 141.606 C 291.142 141.829,291.827 142.260,292.527 142.562 C 295.001 143.632,299.066 148.041,299.809 150.459 C 299.968 150.976,300.278 151.625,300.498 151.900 C 300.717 152.174,301.131 153.524,301.417 154.900 C 301.703 156.275,302.127 158.120,302.359 159.000 C 302.903 161.062,302.903 166.938,302.359 169.000 C 302.127 169.880,301.704 171.680,301.418 173.000 C 301.133 174.320,300.608 175.940,300.252 176.600 C 299.896 177.260,299.604 178.025,299.602 178.300 C 299.598 179.227,293.482 185.600,292.598 185.600 C 292.328 185.600,291.650 185.960,291.091 186.400 C 290.531 186.840,289.742 187.206,289.337 187.214 C 288.932 187.221,287.880 187.575,287.000 188.000 C 286.120 188.425,284.680 188.783,283.800 188.796 C 282.920 188.809,281.480 189.016,280.600 189.257 C 279.720 189.498,277.830 189.838,276.400 190.012 C 273.993 190.304,274.067 190.317,277.400 190.185 C 294.253 189.519,303.152 180.469,303.152 164.000 C 303.152 153.002,298.959 144.840,291.600 141.516 C 290.170 140.870,288.678 140.169,288.284 139.957 C 287.890 139.746,286.720 139.406,285.684 139.201 C 284.648 138.997,282.540 138.556,281.000 138.222 C 278.267 137.628,247.865 137.314,246.500 137.865 M140.250 138.543 C 141.102 138.842,142.700 139.214,143.800 139.370 C 145.609 139.628,148.434 140.657,150.000 141.629 C 150.330 141.834,150.971 142.164,151.424 142.362 C 153.151 143.117,158.800 148.588,158.800 149.505 C 158.800 149.692,159.250 150.455,159.800 151.200 C 160.350 151.945,160.800 152.858,160.800 153.229 C 160.800 153.599,161.054 154.113,161.365 154.371 C 161.676 154.629,162.056 155.776,162.210 156.920 C 162.363 158.064,162.739 159.607,163.044 160.349 C 163.829 162.254,163.838 177.168,163.055 178.720 C 162.755 179.314,162.413 180.562,162.294 181.493 C 162.100 183.017,160.957 186.017,159.969 187.600 C 159.763 187.930,159.379 188.650,159.116 189.200 C 158.493 190.503,152.566 196.400,151.880 196.400 C 151.589 196.400,150.996 196.731,150.562 197.135 C 150.128 197.539,149.239 198.003,148.587 198.166 C 147.934 198.329,147.130 198.697,146.800 198.983 C 146.470 199.270,145.120 199.633,143.800 199.790 C 142.480 199.947,140.397 200.331,139.170 200.643 C 137.407 201.092,133.936 201.188,122.570 201.105 L 108.200 201.000 108.097 170.000 C 108.040 152.950,108.079 138.775,108.184 138.500 C 108.473 137.744,138.082 137.784,140.250 138.543 M246.500 201.865 C 246.106 202.024,246.000 208.913,246.000 234.426 L 246.000 266.785 246.900 267.003 C 247.395 267.124,255.810 267.170,265.600 267.107 L 283.400 266.991 265.098 266.896 L 246.795 266.800 246.898 234.500 L 247.000 202.200 264.328 202.096 C 280.523 201.998,281.873 202.044,284.982 202.796 C 286.812 203.238,288.821 203.600,289.447 203.600 C 290.073 203.600,291.488 203.949,292.592 204.375 C 293.697 204.801,294.870 205.252,295.200 205.377 C 295.530 205.501,296.700 206.142,297.800 206.800 C 298.900 207.458,300.043 208.114,300.340 208.256 C 301.618 208.872,306.000 214.082,306.000 214.987 C 306.000 215.270,306.258 215.717,306.574 215.979 C 306.890 216.241,307.268 217.028,307.414 217.728 C 307.559 218.427,307.909 219.365,308.190 219.810 C 308.471 220.256,308.911 222.200,309.168 224.131 C 309.425 226.061,309.807 228.093,310.018 228.646 C 310.604 230.189,310.478 238.498,309.829 241.106 C 309.515 242.368,309.083 244.480,308.868 245.800 C 308.433 248.479,307.329 251.886,306.600 252.800 C 306.337 253.130,306.003 253.734,305.858 254.141 C 305.392 255.447,302.656 258.638,300.800 260.040 C 299.810 260.788,298.762 261.625,298.471 261.900 C 298.181 262.175,297.618 262.400,297.220 262.400 C 296.823 262.400,296.274 262.670,296.000 263.000 C 295.726 263.330,295.202 263.600,294.836 263.600 C 294.469 263.600,293.505 263.939,292.692 264.353 C 291.880 264.767,290.257 265.226,289.086 265.372 C 286.383 265.710,282.959 266.734,284.400 266.774 C 286.921 266.844,293.401 264.927,297.588 262.873 C 299.855 261.761,306.000 256.044,306.000 255.047 C 306.000 254.750,306.349 254.064,306.775 253.522 C 307.202 252.980,307.676 252.011,307.830 251.368 C 307.984 250.726,308.270 249.996,308.466 249.747 C 308.661 249.497,309.105 247.877,309.453 246.147 C 309.800 244.416,310.238 242.280,310.425 241.400 C 310.867 239.319,310.865 229.463,310.421 227.400 C 310.232 226.520,309.873 224.720,309.624 223.400 C 309.099 220.624,307.694 216.472,306.983 215.600 C 306.715 215.270,306.367 214.582,306.211 214.071 C 306.055 213.559,304.543 211.759,302.851 210.071 C 298.227 205.454,293.894 203.576,284.200 201.986 C 282.068 201.637,247.343 201.525,246.500 201.865 M333.494 226.800 C 333.873 229.524,333.858 239.761,333.472 243.000 L 333.185 245.400 333.839 243.600 C 334.814 240.917,334.838 228.460,333.872 226.200 L 333.189 224.600 333.494 226.800 " stroke="none" fill="#949494" fill-rule="evenodd"></path></g></svg>